#!OML:ASF F:\VICON\USERDATA\INSTALL\Justin_Nancy\Justin_Nancy.ASF
:FULLY-SPECIFIED
:DEGREES
17
root 1.36814 17.3328 -29.6486 -1.63633 3.69344 -0.495321
lowerback 9.3328 -3.82673 -3.18012
upperback -2.36107 -5.11251 5.72072
thorax -6.9337 -2.24934 8.67561
lowerneck -6.44186 0.543955 -13.0904
upperneck 17.5578 1.96985 2.71666
head 6.27847 0.312971 3.16623
rclavicle -6.13748e-015 7.95139e-015
rhumerus -48.6351 -8.50215 -70.4208
rradius 21.2289
rwrist 14.4562
rhand -15.5981 10.7875
rfingers 7.12502
rthumb 10.5878 -18.9258
lclavicle -6.13748e-015 7.95139e-015
lhumerus -32.0359 15.0771 81.4878
lradius 38.3303
lwrist 0.27949
lhand -16.851 29.1463
lfingers 7.12502
lthumb 9.37913 58.9177
rfemur -21.5951 6.24551 24.5965
rtibia 30.5892
rfoot -2.67264 -3.76103
rtoes 0.328945
lfemur -4.74394 -1.12735 -19.3579
ltibia 60.5662
lfoot 18.7562 -14.2595
ltoes -5.54316
18
root 1.37338 17.3613 -29.4089 -1.71415 3.34611 -0.904355
lowerback 8.47329 -1.57587 0.207637
upperback 0.269347 -1.92931 3.21409
thorax -4.36933 -0.928326 3.46134
lowerneck -14.4712 -2.80818 -9.52523
upperneck 20.1406 -2.36351 3.37462
head 8.86178 -1.48478 2.44816
rclavicle 3.24516e-014 -1.82882e-014
rhumerus -45.9176 -19.0172 -70.9131
rradius 21.3655
rwrist 15.8552
rhand -15.7452 11.8623
rfingers 7.12502
rthumb 10.446 -17.8582
lclavicle 3.24516e-014 -1.82882e-014
lhumerus -24.3629 7.20627 82.5352
lradius 36.2729
lwrist -0.0323589
lhand -16.4872 29.0367
lfingers 7.12502
lthumb 9.7301 58.7919
rfemur -20.3158 6.32306 25.2604
rtibia 30.08
rfoot -4.01633 -4.03396
rtoes 4.91441
lfemur -6.71495 -0.408073 -18.841
ltibia 62.7294
lfoot 16.6823 -12.5076
ltoes -2.77455
19
root 1.37484 17.3958 -29.1675 -1.68671 3.03748 -1.18835
lowerback 8.37333 -1.357 0.482859
upperback 0.31855 -1.61271 3.25861
thorax -4.28636 -0.777543 3.31014
lowerneck -14.8485 -2.68447 -9.25743
upperneck 20.1637 -2.24608 3.50448
head 8.92581 -1.39259 2.4615
rclavicle 1.19271e-015 -2.38542e-015
rhumerus -45.0132 -18.7818 -71.4125
rradius 21.7763
rwrist 15.2344
rhand -15.4748 12.5976
rfingers 7.12502
rthumb 10.7068 -17.1096
lclavicle 1.19271e-015 -2.38542e-015
lhumerus -24.3886 6.9788 82.7705
lradius 35.8359
lwrist -0.332245
lhand -16.1101 29.3363
lfingers 7.12502
lthumb 10.0939 59.0742
rfemur -19.1062 6.36914 25.7792
rtibia 29.5304
rfoot -4.25966 -3.81895
rtoes 2.32208
lfemur -8.66216 0.28803 -18.4344
ltibia 64.4632
lfoot 16.5154 -10.3953
ltoes 8.65299
20
root 1.37805 17.4363 -28.9259 -1.65874 2.90905 -1.39204
lowerback 8.36066 -1.26519 0.578718
upperback 0.199379 -1.47198 3.39057
thorax -4.4101 -0.706632 3.38034
lowerneck -14.3398 -2.99666 -9.32075
upperneck 19.9723 -2.64471 3.1876
head 8.79463 -1.61824 2.31541
rclavicle -1.04362e-015 2.38542e-015
rhumerus -44.2131 -17.9324 -72.0167
rradius 22.4037
rwrist 14.2371
rhand -15.0243 11.7566
rfingers 7.12502
rthumb 11.1413 -17.9276
lclavicle -1.04362e-015 2.38542e-015
lhumerus -24.9122 7.03734 83.0437
lradius 35.4882
lwrist -0.86872
lhand -16.1045 29.7035
lfingers 7.12502
lthumb 10.0993 59.4412
rfemur -17.9413 6.42047 26.1529
rtibia 29.0432
rfoot -5.11962 -4.02373
rtoes 3.62639
lfemur -10.5335 0.682546 -18.1868
ltibia 65.809
lfoot 11.5708 -8.43471
ltoes -4.24146
21
root 1.38276 17.4635 -28.6908 -1.58014 2.71354 -1.49717
lowerback 8.19739 -1.27925 0.634391
upperback 0.110705 -1.48279 3.48796
thorax -4.40932 -0.711792 3.44912
lowerneck -14.088 -2.69945 -9.3765
upperneck 19.5005 -2.28348 3.3741
head 8.56459 -1.42567 2.42954
rclavicle -2.08227e-014 8.74653e-015
rhumerus -43.461 -17.3375 -72.2436
rradius 22.5501
rwrist 14.5942
rhand -15.4336 12.2835
rfingers 7.12502
rthumb 10.7465 -17.4217
lclavicle -2.08227e-014 8.74653e-015
lhumerus -25.603 7.38325 83.1487
lradius 35.2455
lwrist -1.41626
lhand -16.094 29.1196
lfingers 7.12502
lthumb 10.1095 58.8567
rfemur -16.9163 6.52485 26.4143
rtibia 28.6142
rfoot -5.76948 -4.11269
rtoes 3.47945
lfemur -12.3935 1.08939 -18.0995
ltibia 66.8567
lfoot 8.09524 -6.38353
ltoes -10.9882
22
root 1.38538 17.4757 -28.4573 -1.51609 2.07878 -1.49355
lowerback 8.08781 -1.08756 0.58264
upperback 0.178313 -1.23709 3.5013
thorax -4.28912 -0.590332 3.45868
lowerneck -14.3728 -2.61872 -9.3377
upperneck 19.5843 -2.15987 3.41228
head 8.63558 -1.36009 2.45015
rclavicle 3.18055e-015 1.98785e-014
rhumerus -42.561 -17.801 -71.879
rradius 22.0383
rwrist 16.4124
rhand -16.5528 15.3185
rfingers 7.12502
rthumb 9.66687 -14.4397
lclavicle 3.18055e-015 1.98785e-014
lhumerus -25.9211 7.37843 83.361
lradius 35.093
lwrist -1.5782
lhand -16.148 29.8013
lfingers 7.12502
lthumb 10.0573 59.541
rfemur -15.9451 6.89025 26.5877
rtibia 28.3268
rfoot -5.87523 -3.93644
rtoes 2.10796
lfemur -14.087 1.96271 -18.1278
ltibia 67.6093
lfoot 6.88509 -4.72023
ltoes -8.45336
